<svg width="41" height="31" viewBox="0 0 41 31" fill="white" xmlns="http://www.w3.org/2000/svg">
<path d="M34.0563 2.54083C31.4922 1.36479 28.7426 0.498336 25.8676 0.00208172C25.8153 -0.00749583 25.763 0.016439 25.736 0.0643097C25.3824 0.693002 24.9907 1.51318 24.7164 2.15784C21.6242 1.6951 18.548 1.6951 15.5192 2.15784C15.2449 1.49885 14.8389 0.693002 14.4837 0.0643097C14.4568 0.0180362 14.4045 -0.00589863 14.3521 0.00208172C11.4788 0.49675 8.72915 1.3632 6.16344 2.54083C6.14123 2.5504 6.1222 2.56637 6.10956 2.5871C0.894095 10.3757 -0.534639 17.9728 0.16625 25.4757C0.169422 25.5124 0.190036 25.5476 0.218579 25.5699C3.65959 28.0958 6.9928 29.6293 10.2641 30.6458C10.3165 30.6617 10.3719 30.6426 10.4053 30.5995C11.1791 29.5432 11.8689 28.4294 12.4603 27.2581C12.4952 27.1895 12.4619 27.1081 12.3906 27.081C11.2964 26.6661 10.2546 26.1603 9.25242 25.5858C9.17315 25.5396 9.1668 25.4262 9.23973 25.372C9.45062 25.214 9.66158 25.0497 9.86295 24.8837C9.89938 24.8534 9.95015 24.847 9.99299 24.8661C16.5769 27.8709 23.7047 27.8709 30.2109 24.8661C30.2537 24.8454 30.3045 24.8518 30.3425 24.8821C30.5439 25.0481 30.7548 25.214 30.9673 25.372C31.0402 25.4262 31.0355 25.5396 30.9562 25.5858C29.954 26.1714 28.9122 26.6661 27.8165 27.0794C27.7451 27.1065 27.7134 27.1895 27.7483 27.2581C28.3524 28.4277 29.0422 29.5415 29.8018 30.5979C29.8335 30.6426 29.8906 30.6617 29.9429 30.6458C33.2301 29.6293 36.5633 28.0958 40.0043 25.5699C40.0345 25.5476 40.0535 25.514 40.0567 25.4773C40.8955 16.8031 38.6517 9.26828 34.1086 2.58869C34.0975 2.56637 34.0785 2.5504 34.0563 2.54083ZM13.4435 20.9072C11.4613 20.9072 9.82805 19.0882 9.82805 16.8542C9.82805 14.6202 11.4297 12.8012 13.4435 12.8012C15.4732 12.8012 17.0907 14.6362 17.0589 16.8542C17.0589 19.0882 15.4573 20.9072 13.4435 20.9072ZM26.8111 20.9072C24.829 20.9072 23.1957 19.0882 23.1957 16.8542C23.1957 14.6202 24.7972 12.8012 26.8111 12.8012C28.8409 12.8012 30.4583 14.6362 30.4266 16.8542C30.4266 19.0882 28.8409 20.9072 26.8111 20.9072Z"/>
</svg>
