<svg width="42" height="41" viewBox="0 0 42 41" fill="none" xmlns="http://www.w3.org/2000/svg">
<path fill-rule="evenodd" clip-rule="evenodd" d="M20.6109 0C9.21361 0 0 9.21931 0 20.6249C0 29.7419 5.90348 37.4593 14.0932 40.1907C15.1171 40.3961 15.4921 39.747 15.4921 39.2009C15.4921 38.7228 15.4584 37.0838 15.4584 35.3762C9.72494 36.6057 8.531 32.9175 8.531 32.9175C7.60959 30.5272 6.24436 29.9129 6.24436 29.9129C4.36781 28.6494 6.38105 28.6494 6.38105 28.6494C8.46265 28.786 9.55492 30.7665 9.55492 30.7665C11.3973 33.9078 14.3661 33.0202 15.5605 32.4738C15.7309 31.142 16.2773 30.2201 16.8574 29.708C12.2845 29.2298 7.47332 27.4543 7.47332 19.5319C7.47332 17.2782 8.29179 15.4344 9.58867 14.0004C9.38405 13.4883 8.66726 11.3708 9.79371 8.53666C9.79371 8.53666 11.534 7.99021 15.458 10.6538C17.138 10.2023 18.8705 9.97262 20.6109 9.97068C22.3512 9.97068 24.1252 10.21 25.7634 10.6538C29.6878 7.99021 31.4281 8.53666 31.4281 8.53666C32.5546 11.3708 31.8373 13.4883 31.6327 14.0004C32.9638 15.4344 33.7485 17.2782 33.7485 19.5319C33.7485 27.4543 28.9373 29.1955 24.3303 29.708C25.0812 30.3567 25.7293 31.5858 25.7293 33.5323C25.7293 36.2981 25.6955 38.5179 25.6955 39.2005C25.6955 39.747 26.071 40.3961 27.0945 40.1912C35.2842 37.4589 41.1876 29.7419 41.1876 20.6249C41.2214 9.21931 31.974 0 20.6109 0Z" fill="white"/>
</svg>
