<svg width="42" height="29" viewBox="0 0 42 29" fill="none" xmlns="http://www.w3.org/2000/svg">
<path d="M40.7775 6.20039C40.7775 6.20039 40.3752 3.38348 39.1364 2.14659C37.5677 0.518694 35.814 0.510714 35.0096 0.414955C29.2497 -2.28307e-07 20.6019 0 20.6019 0H20.5858C20.5858 0 11.938 -2.28307e-07 6.17816 0.414955C5.37371 0.510714 3.62002 0.518694 2.05134 2.14659C0.812493 3.38348 0.418313 6.20039 0.418313 6.20039C0.418313 6.20039 0 9.51204 0 12.8157V15.9119C0 19.2156 0.410268 22.5273 0.410268 22.5273C0.410268 22.5273 0.812492 25.3442 2.0433 26.5811C3.61197 28.209 5.67136 28.1531 6.58843 28.3287C9.88667 28.6399 20.5939 28.7356 20.5939 28.7356C20.5939 28.7356 29.2497 28.7197 35.0096 28.3127C35.814 28.2169 37.5677 28.209 39.1364 26.5811C40.3752 25.3442 40.7775 22.5273 40.7775 22.5273C40.7775 22.5273 41.1877 19.2236 41.1877 15.9119V12.8157C41.1877 9.51204 40.7775 6.20039 40.7775 6.20039ZM16.3383 19.6705V8.18738L27.4639 13.9489L16.3383 19.6705Z" fill="white"/>
</svg>
